<svg data-v-fde0c5aa="" xmlns="http://www.w3.org/2000/svg" viewBox="0 0 300 300" class="iconAbove"><!----><defs data-v-fde0c5aa=""><!----></defs><rect data-v-fde0c5aa="" fill="transparent" x="0" y="0" width="300px" height="300px" class="logo-background-square"></rect><defs data-v-fde0c5aa=""><!----></defs><g data-v-fde0c5aa="" id="c7ea071b-dccc-4882-b56d-81cbdf89d263" fill="#000000"><path d=""></path></g><defs data-v-fde0c5aa=""><linearGradient data-v-fde0c5aa="" gradientTransform="rotate(25)" id="31f915ca-15ed-4ec4-bb12-b3829255cf66" x1="0%" y1="0%" x2="100%" y2="0%"><stop data-v-fde0c5aa="" offset="0%" stop-color="#5A5A2D" stop-opacity="1"></stop><stop data-v-fde0c5aa="" offset="100%" stop-color="#0DE30D" stop-opacity="1"></stop></linearGradient></defs><g data-v-fde0c5aa="" id="27f2b41e-5db0-4d24-a2f9-7832e059041f" stroke="none" fill="url(#31f915ca-15ed-4ec4-bb12-b3829255cf66)"><path d="M79.324 58.95L42.811 71.576c-.676 9.822-10.365 15.626-11.567 15.588 2.418.992 4.53 2.181 42.378-10.235 10.449-3.427 5.702-17.979 5.702-17.979zM77.97 14.884c-1.555-1.766-2.944-2.625-4.252-2.625-.824 0-1.413.354-1.606.47-.444.264-1.111.917-1.049 2.445l-4.564 3.739c-.679-.228-1.331-.344-1.941-.344-1.939 0-3.079 1.159-3.433 1.822-1.071 1.902-.587 4.305 1.356 6.837L51.718 40.312l14.211-9.817c1.126.745 2.595 1.448 4.117 1.448a4.36 4.36 0 002.47-.738c1.814-1.238 1.462-3.695 1.146-4.909l3.825-4.761c.163.021.34.035.521.035.87 0 1.385-.345 1.659-.633 1.748-1.824.04-4.082-1.697-6.053z"></path><path d="M34.239 82.002c-8.63-1.46-10.697-16.815-6.144-45.646l31.137-6.921 1.749-2.128-.231-.349c-.783-1.174-1.3-2.358-1.537-3.519l-.114-.564-36.63 8.142-.365 2.128c-1.349 7.873-7.386 47.443 6.178 53.268.166.072.331.131.495.189l.335.125.133-.013c1.087-.106 5.612-3.086 5.561-4.122l-.117-.515-.45-.075zM67.98 32.879l-.688-.23-2.256 29.316 6.63-2.291 2.112-27.466-.899.462c-1.449.745-3.082.823-4.899.209z"></path></g><!----></svg>